# xmcd CD database file
#
# Track frame offsets:
#	150
#	20185
#	39402
#	60992
#	81742
#	103840
#	122492
#	143722
#	165147
#	184800
#	202287
#	223384
#
# Disc length: 3254 seconds
#
# Revision: 0
# Processed by: cddbd v1.4PL0 Copyright (c) Steve Scherf et al.
# Submitted via: CDex 1.50Beta3
#
DISCID=b20cb40c
DTITLE=Varios Artistas - Del Merengue a Jose Jose
DYEAR=1998
DGENRE=Merengue
TTITLE0=Rubby Perez - Payaso
TTITLE1=Gisselle - Cuidado
TTITLE2=Fernando Villalona - La nave del olvido
TTITLE3=Sin Fronteras- No me digas que te vas
TTITLE4=Alex Bueno - Insaciable amante
TTITLE5=Francis Santana - Y que
TTITLE6=Sergio Vargas - El Amor
TTITLE7=Jonny Ventura - O tu o yo
TTITLE8=Jessica - Mas
TTITLE9=Raza Latina - Desesperado
TTITLE10=Miriam Cruz - Lo pasado pasado
TTITLE11=Grupo karis - Lo dudo
EXTD=YEAR: 1998
EXTT0=
EXTT1=
EXTT2=
EXTT3=
EXTT4=
EXTT5=
EXTT6=
EXTT7=
EXTT8=
EXTT9=
EXTT10=
EXTT11=
PLAYORDER=
